<svg xmlns="http://www.w3.org/2000/svg" viewBox="0 0 640 640"><path d="M112 448c0 44.2 35.8 80 80 80s80-35.8 80-80-35.8-80-80-80-80 35.8-80 80m112-192h192L320 96zm160 136v112c0 4.4 3.6 8 8 8h112c4.4 0 8-3.6 8-8V392c0-4.4-3.6-8-8-8H392c-4.4 0-8 3.6-8 8" opacity=".4"/><path d="m320 96-96 160h192zm0-32c11.2 0 21.7 5.9 27.4 15.5l96 160c5.9 9.9 6.1 22.2.4 32.2S427.5 288 416 288H224a31.9 31.9 0 0 1-27.8-16.2c-5.6-10-5.5-22.3.4-32.2l96-160A31.8 31.8 0 0 1 320 64M192 528c44.2 0 80-35.8 80-80s-35.8-80-80-80-80 35.8-80 80 35.8 80 80 80m0-192c61.9 0 112 50.1 112 112s-50.1 112-112 112S80 509.9 80 448s50.1-112 112-112m312 48H392c-4.4 0-8 3.6-8 8v112c0 4.4 3.6 8 8 8h112c4.4 0 8-3.6 8-8V392c0-4.4-3.6-8-8-8m-112-32h112c22.1 0 40 17.9 40 40v112c0 22.1-17.9 40-40 40H392c-22.1 0-40-17.9-40-40V392c0-22.1 17.9-40 40-40"/></svg>
