<svg xmlns="http://www.w3.org/2000/svg" viewBox="0 0 64 64"><path d="M42 26c8.837 0 16 7.163 16 16s-7.163 16-16 16-16-7.163-16-16 7.163-16 16-16Zm0 4c-6.627 0-12 5.373-12 12s5.373 12 12 12 12-5.373 12-12-5.373-12-12-12ZM15 10a1 1 0 0 1 1 1v2a3 3 0 0 0 3 3h2a3 3 0 0 0 3-3v-2a1 1 0 0 1 1-1h11a1 1 0 0 1 1 1v2a3 3 0 0 0 3 3h2a3 3 0 0 0 3-3v-2a1 1 0 0 1 1-1h3a4 4 0 0 1 4 4v13.752a17.985 17.985 0 0 0-4-2.34V23a1 1 0 0 0-1-1H13a1 1 0 0 0-1 1v25a1 1 0 0 0 1 1h12.412a17.985 17.985 0 0 0 2.34 4H12a4 4 0 0 1-4-4V14a4 4 0 0 1 4-4h3Zm27 22c.382 0 .704.283.755.66l1.114 8.357 4.022 3.47a.806.806 0 0 1 .221.91l-.05.103a.806.806 0 0 1-.963.358l-5.392-1.88a2 2 0 0 1-1.638-2.502l1.176-8.815A.761.761 0 0 1 42 32ZM20 6a2 2 0 0 1 2 2v4a2 2 0 1 1-4 0V8a2 2 0 0 1 2-2Zm21 0a2 2 0 0 1 2 2v4a2 2 0 1 1-4 0V8a2 2 0 0 1 2-2Z" fill="#fff" fill-rule="evenodd"/></svg>
