<svg xmlns="http://www.w3.org/2000/svg" width="33" height="26"><g fill="#fff" fill-rule="nonzero"><path d="M11.54.36H9.82V2.6H8.03V.36H6.31v5.63h1.72V3.78h1.79v2.21h1.72zm5.98 4.5V.36H15.8v5.63h3.11l.26-1.13zm-4.71 1.13h1.72V.36h-1.72zM21.5.36h-1.72v5.63h1.72zm8.47 1.44c0-.31.31-.45.8-.45.54 0 1.13.12 1.53.28L32.16.41a7 7 0 0 0-1.58-.16c-1.39 0-2.33.55-2.33 1.7 0 1.98 2.68 1.58 2.68 2.5 0 .35-.26.54-.89.54a5 5 0 0 1-1.95-.45l.19 1.3c.52.19 1.22.28 1.79.28 1.44 0 2.61-.47 2.61-1.88 0-1.88-2.71-1.53-2.71-2.43zm-4.85 2.85c1.6 0 2.61-.82 2.61-2.26 0-1.58-1.08-2.14-2.85-2.14-.68 0-1.51.05-2.09.12V6h1.72V4.66zm.92-2.24c0 .73-.35 1.22-1.25 1.22h-.28V1.3h.28c.85 0 1.25.4 1.25 1.11M3.02 4.65c1.6 0 2.61-.82 2.61-2.26C5.63.81 4.55.25 2.78.25 2.1.25 1.27.3.69.37V6h1.72V4.66zm.92-2.24c0 .73-.35 1.22-1.25 1.22h-.28V1.3h.28c.85 0 1.25.4 1.25 1.11M28.34 25.72c-2.98 0-5.05-1.76-5.33-4.51h-.69c-.43 0-.71-.27-.71-.7s.28-.7.71-.7h.7a4.87 4.87 0 0 1 5.02-4.5c1.07 0 4.57.36 4.58 5.02v.08c-.02.51-.34.8-.86.8H24.8c.14 1.89 1.57 3.07 3.68 3.07 1.05 0 1.51-.16 2.04-.35l.47-.16q.18-.06.34-.06a1 1 0 0 1 .38.1q.23.15.29.45.09.54-.49.83a7 7 0 0 1-3.15.62zm2.63-5.91c-.08-2.28-1.53-3.08-2.89-3.08-1.8 0-3.07 1.2-3.28 3.08zm-15.18 5.91c-2.6 0-3.97-1.47-3.97-4.25v-.25h1.76v.18c0 1.96.83 2.88 2.61 2.88 1.49 0 2.65-1.28 2.65-2.91v-.14h1.76v3.5c0 .54-.35.9-.88.9s-.88-.35-.88-.9v-.44a3.6 3.6 0 0 1-3.05 1.45zm-7.25-.11c-.53 0-.88-.37-.88-.94v-3.46h1.76v3.46c0 .57-.34.94-.88.94m-7.04 0c-.53 0-.88-.37-.88-.94v-3.46h1.76v3.46c0 .57-.34.94-.88.94m17.33-5.79v-3.49c0-.54.34-.9.88-.9s.88.35.88.9v3.49zm-7.02 0v-3.49c0-.54.34-.9.88-.9s.88.35.88.9v3.49zm-4.16 0v-.17c0-1.31-.42-2.88-2.44-2.88-1.88 0-2.77 1.55-2.83 3.04H.62v-7.26c0-.57.34-.94.88-.94s.88.37.88.94v4.38a3.7 3.7 0 0 1 3.24-1.62c2.45 0 3.8 1.55 3.8 4.37v.13H7.66z"/></g></svg>
