<svg xmlns="http://www.w3.org/2000/svg" viewBox="0 0 640 640"><path d="M409.1 197a48 48 0 0 0 0-67.9L361 81a58 58 0 0 0-82 0l-48.1 48.1a48 48 0 0 0 0 67.9l55.1 55.1a48 48 0 0 0 67.9 0zM313 114.9a10 10 0 0 1 7-2.9q4.1 0 7 2.9l48.1 48.1-55.1 55.2-55.1-55.2zm-116 116a48 48 0 0 0-67.9 0L81 279a58 58 0 0 0 0 82l48.1 48.1a48 48 0 0 0 67.9 0l55.1-55.1a48 48 0 0 0 0-67.9zM114.9 313l48.1-48.1 55.1 55.1-55.1 55.1-48.1-48.1a10 10 0 0 1-2.9-7q0-4.1 2.9-7m150 164 55.1-55.2 55.1 55.2-48.1 48.1a10 10 0 0 1-7 2.9q-4.1 0-7-2.9zm89.1-89.1a48 48 0 0 0-67.9 0L230.9 443a48 48 0 0 0 0 67.9L279 559a58 58 0 0 0 82 0l48.1-48.1a48 48 0 0 0 0-67.9zm157-157a48 48 0 0 0-67.9 0L388 286a48 48 0 0 0 0 67.9l55 55.2a48 48 0 0 0 67.9 0L559 361a58 58 0 0 0 0-82l-48.1-48.1zm14.1 82.1a10 10 0 0 1 2.9 7q0 4.1-2.9 7L477 375.1 421.8 320l55.2-55.1z"/></svg>
