<svg xmlns="http://www.w3.org/2000/svg" viewBox="0 0 640 640">
    <path fill="#204ef6" d="M467.1 195.5a16 16 0 1 1-22.6-22.6 16 16 0 1 1 22.6 22.6" opacity=".4"/>
    <path fill="#204ef6" d="M320 116c6.6 0 12 5.4 12 12s-5.4 12-12 12-12-5.4-12-12 5.4-12 12-12m-52 12c0 28.7 23.3 52 52 52s52-23.3 52-52-23.3-52-52-52-52 23.3-52 52m20 384c0 17.7 14.3 32 32 32s32-14.3 32-32-14.3-32-32-32-32 14.3-32 32m256-192c0-17.7-14.3-32-32-32s-32 14.3-32 32 14.3 32 32 32 32-14.3 32-32m-416-36c-19.9 0-36 16.1-36 36s16.1 36 36 36 36-16.1 36-36-16.1-36-36-36m339.1-88.5a16 16 0 1 1-22.6-22.6 16 16 0 1 1 22.6 22.6m28.3-50.9a55.95 55.95 0 0 0-79.2 0 55.95 55.95 0 0 0 0 79.2 55.95 55.95 0 0 0 79.2 0 55.95 55.95 0 0 0 0-79.2M161.6 433.1a32.05 32.05 0 0 0 0 45.3 32.05 32.05 0 0 0 45.3 0 32.05 32.05 0 0 0 0-45.3 32.05 32.05 0 0 0-45.3 0m316.8 45.3a32.05 32.05 0 0 0 0-45.3 32.05 32.05 0 0 0-45.3 0 32.05 32.05 0 0 0 0 45.3 32.05 32.05 0 0 0 45.3 0M189.9 189.9c-2 2.2-5 3.1-7.9 2.4-2.8-.7-5.1-3-5.8-5.8-.7-2.9.2-5.9 2.4-7.9 2-2.2 5-3.1 7.9-2.4 2.8.7 5.1 3 5.8 5.8.7 2.9-.2 5.9-2.4 7.9m28.3-39.6a47.9 47.9 0 0 0-67.9 0 47.9 47.9 0 0 0 0 67.9 47.9 47.9 0 0 0 67.9 0 47.9 47.9 0 0 0 0-67.9"/>
</svg>
