<svg xmlns="http://www.w3.org/2000/svg" viewBox="0 0 640 640">
    <path fill="#204ef6" d="M320 128v384c0 8.8 7.2 16 16 16h144c8.8 0 16-7.2 16-16V128c0-8.8-7.2-16-16-16H336c-8.8 0-16 7.2-16 16" opacity=".4"/>
    <path fill="#204ef6" d="M336 112c-8.8 0-16 7.2-16 16v384c0 8.8 7.2 16 16 16h144c8.8 0 16-7.2 16-16V128c0-8.8-7.2-16-16-16zm-64 16c0-35.3 28.7-64 64-64h144c35.3 0 64 28.7 64 64v384c0 35.3-28.7 64-64 64H336c-35.3 0-64-28.7-64-64zm-104 8c0-13.3 10.7-24 24-24s24 10.7 24 24v368c0 13.3-10.7 24-24 24s-24-10.7-24-24zM64 184c0-13.3 10.7-24 24-24s24 10.7 24 24v272c0 13.3-10.7 24-24 24s-24-10.7-24-24z"/>
</svg>
