<svg xmlns="http://www.w3.org/2000/svg" viewBox="0 0 640 640">
    <path fill="#204ef6" d="M80 320c0 79.5 64.5 144 144 144h192c79.5 0 144-64.5 144-144s-64.5-144-144-144H224c-79.5 0-144 64.5-144 144m432 0c0 53-43 96-96 96s-96-43-96-96 43-96 96-96 96 43 96 96" opacity=".4"/>
    <path fill="#204ef6" d="M224 176c-79.5 0-144 64.5-144 144s64.5 144 144 144h192c79.5 0 144-64.5 144-144s-64.5-144-144-144zM32 320c0-106 86-192 192-192h192c106 0 192 86 192 192s-86 192-192 192H224c-106 0-192-86-192-192m384-96c53 0 96 43 96 96s-43 96-96 96-96-43-96-96 43-96 96-96"/>
</svg>
