<svg xmlns="http://www.w3.org/2000/svg" viewBox="0 0 640 640">
    <path fill="#204ef6" d="M128.1 152c0-13.3 10.7-24 24-24h156.1c6.4 0 12.5 2.5 17 7l208 208c5.9 5.9 8.1 14.1 6.6 21.7-1.5 4.1-3.9 8-7.2 11.3l-79.7 81.2-75.9 75.9a23.9 23.9 0 0 1-33.9 0l-208-208c-4.5-4.5-7-10.6-7-17zm48 56c0 17.7 14.3 32 32 32s32-14.3 32-32-14.3-32-32-32-32 14.3-32 32" opacity=".4"/>
    <path fill="#204ef6" d="M128.1 152c0-13.3 10.7-24 24-24h156.1c6.4 0 12.5 2.5 17 7l208 208a23.9 23.9 0 0 1 0 33.9L377.1 533.1a23.9 23.9 0 0 1-33.9 0l-208-208c-4.5-4.5-7-10.6-7-17zm24-72c-39.8 0-72 32.2-72 72v156.1c0 19.1 7.6 37.4 21.1 50.9l208 208a72 72 0 0 0 101.8 0l156.1-156.1a72 72 0 0 0 0-101.8l-208-208A72 72 0 0 0 308.2 80zm56 160c17.7 0 32-14.3 32-32s-14.3-32-32-32-32 14.3-32 32 14.3 32 32 32"/>
</svg>
