<svg xmlns="http://www.w3.org/2000/svg" viewBox="0 0 640 640">
    <path fill="#204ef6" d="m145.2 192 171.4 79.2c2.1 1 4.6 1 6.7 0L494.8 192l-171.4-79.3c-2.1-1-4.6-1-6.7 0z" opacity=".4"/>
    <path fill="#204ef6" d="M323.4 112.7 494.8 192l-171.4 79.2c-2.1 1-4.6 1-6.7 0L145.2 192l171.4-79.3c2.1-1 4.6-1 6.7 0zm20.1-43.5a56 56 0 0 0-47 0l-218.6 101A23.9 23.9 0 0 0 64 192c0 9.4 5.4 17.9 13.9 21.8l218.6 101c14.9 6.9 32.1 6.9 47 0l218.6-101A23.9 23.9 0 0 0 576 192c0-9.4-5.4-17.9-13.9-21.8zM112.1 282.4l-34.2 15.8A23.9 23.9 0 0 0 64 320c0 9.4 5.4 17.9 13.9 21.8l218.6 101c14.9 6.9 32.1 6.9 47 0l218.6-101A23.9 23.9 0 0 0 576 320c0-9.4-5.4-17.9-13.9-21.8L528 282.4l-57.2 26.4 24.1 11.1-171.4 79.2c-2.1 1-4.6 1-6.7 0L145.2 320l24.1-11.1zM77.9 426.2A23.9 23.9 0 0 0 64 448c0 9.4 5.4 17.9 13.9 21.8l218.6 101c14.9 6.9 32.1 6.9 47 0l218.6-101A23.9 23.9 0 0 0 576 448c0-9.4-5.4-17.9-13.9-21.8L528 410.4l-57.2 26.4 24.1 11.1-171.4 79.2c-2.1 1-4.6 1-6.7 0l-171.4-79.2 24.1-11.1-57.2-26.4-34.1 15.8z"/>
</svg>
