<svg xmlns="http://www.w3.org/2000/svg" viewBox="0 0 640 640">
    <path fill="#204ef6" d="M144 112v19c0 27.6 11 54 30.5 73.5L256 286l81.5-81.5C357 185 368 158.6 368 131v-19zm0 397v19h138.9c-7.1-20-10.9-41.6-10.9-64 0-27.7 5.8-53.9 16.4-77.7L256 353.9l-81.5 81.5C155 455 144 481.4 144 509" opacity=".4"/>
    <path fill="#204ef6" d="M88 64c-13.3 0-24 10.7-24 24s10.7 24 24 24h8v19c0 40.3 16 79 44.5 107.5L222 320l-81.5 81.5A152 152 0 0 0 96 509v19h-8c-13.3 0-24 10.7-24 24s10.7 24 24 24h220c-10.5-14.6-19-30.7-25.1-48H144v-19c0-27.6 11-54 30.5-73.5L256 354l32.4 32.4c6.7-15.2 15.4-29.4 25.7-42.2L290 320.1l81.5-81.5C400 210 416 171.3 416 131v-19h8c13.3 0 24-10.7 24-24s-10.7-24-24-24zm168 222.1-81.5-81.5C155 185 144 158.6 144 131v-19h224v19c0 27.6-11 54-30.5 73.5zM608 464c0-79.5-64.5-144-144-144s-144 64.5-144 144 64.5 144 144 144 144-64.5 144-144m-144-80c8.8 0 16 7.2 16 16v48h32c8.8 0 16 7.2 16 16s-7.2 16-16 16h-48c-8.8 0-16-7.2-16-16v-64c0-8.8 7.2-16 16-16"/>
</svg>
