<svg xmlns="http://www.w3.org/2000/svg" viewBox="0 0 640 640">
    <path fill="#204ef6" d="M144 192a48.01 48.01 0 0 0 96 0 48.01 48.01 0 0 0-96 0m0 256a48.01 48.01 0 0 0 96 0 48.01 48.01 0 0 0-96 0m256-256a48.01 48.01 0 0 0 96 0 48.01 48.01 0 0 0-96 0m0 256a48.01 48.01 0 0 0 96 0 48.01 48.01 0 0 0-96 0" opacity=".4"/>
    <path fill="#204ef6" d="M192 240a48.01 48.01 0 0 0 0-96 48.01 48.01 0 0 0 0 96m96-48c0 53-43 96-96 96s-96-43-96-96 43-96 96-96 96 43 96 96m-96 304a48.01 48.01 0 0 0 0-96 48.01 48.01 0 0 0 0 96m96-48c0 53-43 96-96 96s-96-43-96-96 43-96 96-96 96 43 96 96m112-256a48.01 48.01 0 0 0 96 0 48.01 48.01 0 0 0-96 0m48 96c-53 0-96-43-96-96s43-96 96-96 96 43 96 96-43 96-96 96m0 208a48.01 48.01 0 0 0 0-96 48.01 48.01 0 0 0 0 96m96-48c0 53-43 96-96 96s-96-43-96-96 43-96 96-96 96 43 96 96"/>
</svg>
