<svg xmlns="http://www.w3.org/2000/svg" viewBox="0 0 640 640">
    <path fill="#204ef6" d="M368 224v192c0 8.8 7.2 16 16 16h32c8.8 0 16-7.2 16-16V224c0-8.8-7.2-16-16-16h-32c-8.8 0-16 7.2-16 16" opacity=".4"/>
    <path fill="#204ef6" d="M416 208c8.8 0 16 7.2 16 16v192c0 8.8-7.2 16-16 16h-32c-8.8 0-16-7.2-16-16V224c0-8.8 7.2-16 16-16zm-32-48c-35.3 0-64 28.7-64 64v192c0 35.3 28.7 64 64 64h32c35.3 0 64-28.7 64-64v-72h104c13.3 0 24-10.7 24-24s-10.7-24-24-24H480v-72c0-35.3-28.7-64-64-64zM32 320c0 13.3 10.7 24 24 24h216v-48H56c-13.3 0-24 10.7-24 24"/>
</svg>
