<svg xmlns="http://www.w3.org/2000/svg" viewBox="0 0 640 640">
    <path fill="#204ef6" d="M112.2 311.9a206.7 206.7 0 0 1 35.7-108.7c7.5-11 15.8-21.1 25.1-30.3l50 50.1a23.9 23.9 0 0 0 0 33.9l80 80a23.9 23.9 0 0 0 33.9 0c9.3-9.4 9.4-24.6 0-33.9l-17-17v-94.1c13.3 0 24-10.7 24-24v-54.6c103.6 11.9 184 99.9 184 206.6 0 114.9-93.1 208-208 208S112 434.9 112 320c0-2.7.1-5.4.2-8.1" opacity=".4"/>
    <path fill="#204ef6" d="M296 88c0-13.3 10.7-24 24-24 141.4 0 256 114.6 256 256S461.4 576 320 576 64 461.4 64 320c0-37.9 8.2-73.8 23-106.1 6-13.2 13.1-25.8 21.2-37.6l.1-.2c9.1-13.3 19.3-25.7 30.7-37.1a23.9 23.9 0 0 1 33.9 0c9.3 9.4 9.4 24.6 0 33.9-9.2 9.2-17.6 19.3-25 30.1l-.1.2a206.7 206.7 0 0 0-35.7 108.7c-.1 2.7-.2 5.4-.2 8.1 0 114.9 93.1 208 208 208s208-93.1 208-208c0-106.8-80.4-194.7-184-206.6V168c0 13.3-10.7 24-24 24s-24-10.7-24-24V88zm-73 135a23.9 23.9 0 0 1 33.9 0l80 80a23.9 23.9 0 0 1 0 33.9c-9.4 9.3-24.6 9.4-33.9 0l-80-80a23.9 23.9 0 0 1 0-33.9"/>
</svg>
