<svg xmlns="http://www.w3.org/2000/svg" viewBox="0 0 640 640"><!--! Font Awesome Pro 7.1.0 by @fontawesome - https://fontawesome.com License - https://fontawesome.com/license (Commercial License) Copyright 2025 Fonticons, Inc. --><path opacity=".4" fill="currentColor" d="M115.8 235.4L199.7 218.4C209.2 216.5 216.5 209.1 218.5 199.6L235.5 115.7L306.8 163C314.8 168.3 325.3 168.3 333.3 163L404.6 115.7L421.6 199.6C423.5 209.1 430.9 216.4 440.4 218.4L524.3 235.4L477 306.7C471.7 314.7 471.7 325.2 477 333.2L510.7 383.9L391.7 383.9C406.9 366.9 416.2 344.5 416.2 319.9C416.2 266.9 373.2 223.9 320.2 223.9C267.2 223.9 224.2 266.9 224.2 319.9C224.2 344.5 233.4 366.9 248.7 383.9L129.7 383.9L163.4 333.2C168.7 325.2 168.7 314.7 163.4 306.7L115.8 235.4z"/><path fill="currentColor" d="M232.2 56.1C225.5 51.7 217.1 50.9 209.7 53.9C202.3 56.9 197 63.5 195.4 71.3L174.6 174.6L71.3 195.4C63.5 197 56.9 202.4 53.9 209.7C50.9 217 51.7 225.5 56.1 232.2L114.3 320L71.8 384L129.4 384L163.1 333.3C168.4 325.3 168.4 314.8 163.1 306.8L115.8 235.5L199.7 218.5C209.2 216.6 216.5 209.2 218.5 199.7L235.5 115.8L306.8 163.1C314.8 168.4 325.3 168.4 333.3 163.1L404.6 115.8L421.6 199.7C423.5 209.2 430.9 216.5 440.4 218.5L524.3 235.5L477 306.8C471.7 314.8 471.7 325.3 477 333.3L510.7 384L568.3 384L525.8 320L584 232.2C588.4 225.5 589.2 217.1 586.2 209.7C583.2 202.3 576.6 196.9 568.8 195.4L465.4 174.6L444.6 71.3C443 63.5 437.6 57 430.2 53.9C422.8 50.8 414.4 51.7 407.7 56.1L320 114.3L232.2 56.1zM224 320C224 344.6 233.2 367 248.5 384L391.6 384C406.8 367 416.1 344.6 416.1 320C416.1 267 373.1 224 320.1 224C267.1 224 224.1 267 224.1 320zM272 320C272 293.5 293.5 272 320 272C346.5 272 368 293.5 368 320C368 346.5 346.5 368 320 368C293.5 368 272 346.5 272 320zM544 456C544 442.7 533.3 432 520 432L56 432C42.7 432 32 442.7 32 456C32 469.3 42.7 480 56 480L520 480C533.3 480 544 469.3 544 456zM96 552C96 565.3 106.7 576 120 576L200 576C213.3 576 224 565.3 224 552C224 538.7 213.3 528 200 528L120 528C106.7 528 96 538.7 96 552zM272 552C272 565.3 282.7 576 296 576L584 576C597.3 576 608 565.3 608 552C608 538.7 597.3 528 584 528L296 528C282.7 528 272 538.7 272 552z"/></svg>