<svg xmlns="http://www.w3.org/2000/svg" viewBox="0 0 640 640"><!--! Font Awesome Pro 7.1.0 by @fontawesome - https://fontawesome.com License - https://fontawesome.com/license (Commercial License) Copyright 2025 Fonticons, Inc. --><path opacity=".4" fill="currentColor" d="M116.2 443.4L200.1 426.4C209.6 424.5 216.9 417.1 218.9 407.6L235.9 323.7L307.2 371C315.2 376.3 325.7 376.3 333.7 371L405 323.7L422 407.6C423.9 417.1 431.3 424.5 440.8 426.4L524.7 443.4L500.4 480L403.6 480C387 451.3 356 432 320.4 432C284.8 432 253.8 451.3 237.2 480L140.4 480L116.1 443.4z"/><path fill="currentColor" d="M337.4 55L401.4 119C410.8 128.4 410.8 143.6 401.4 152.9C392 162.2 376.8 162.3 367.5 152.9L344.5 129.9L344.5 232C344.5 245.3 333.8 256 320.5 256C307.2 256 296.5 245.3 296.5 232L296.5 129.9L273.5 152.9C264.1 162.3 248.9 162.3 239.6 152.9C230.3 143.5 230.2 128.3 239.6 119L303.6 55C313 45.6 328.2 45.6 337.5 55zM210.2 261.9C217.6 258.8 226 259.7 232.7 264.1L320.5 322.3L408.3 264.1C415 259.7 423.4 258.9 430.8 261.9C438.2 264.9 443.6 271.5 445.1 279.3L466 382.5L569.2 403.4C577 405 583.6 410.4 586.6 417.7C589.6 425 588.8 433.5 584.4 440.2L558 480L500.4 480L524.7 443.4L440.8 426.4C431.3 424.5 423.9 417.1 422 407.6L405 323.7L333.7 371C325.7 376.3 315.2 376.3 307.2 371L235.9 323.7L218.9 407.6C217 417.1 209.6 424.5 200.1 426.4L116.2 443.4L140.5 480L82.9 480L56.5 440.2C52.1 433.5 51.3 425.1 54.3 417.7C57.3 410.3 63.9 404.9 71.7 403.4L175 382.6L195.9 279.3C197.5 271.5 202.9 264.9 210.2 261.9zM403.6 480L321.3 480L320.4 480L319.5 480L237.2 480C253.8 451.3 284.8 432 320.4 432C356 432 387 451.3 403.6 480zM64.4 552C64.4 538.7 75.1 528 88.4 528L552.4 528C565.7 528 576.4 538.7 576.4 552C576.4 565.3 565.7 576 552.4 576L88.4 576C75.1 576 64.4 565.3 64.4 552z"/></svg>