<svg xmlns="http://www.w3.org/2000/svg" viewBox="0 0 640 640"><!--! Font Awesome Pro 7.1.0 by @fontawesome - https://fontawesome.com License - https://fontawesome.com/license (Commercial License) Copyright 2025 Fonticons, Inc. --><path opacity=".4" fill="currentColor" d="M256 320C256 355.3 284.7 384 320 384C355.3 384 384 355.3 384 320C384 284.7 355.3 256 320 256C284.7 256 256 284.7 256 320z"/><path fill="currentColor" d="M296 552L296 496C296 482.7 306.7 472 320 472C333.3 472 344 482.7 344 496L344 552C344 565.3 333.3 576 320 576C306.7 576 296 565.3 296 552zM296 144L296 88C296 74.7 306.7 64 320 64C333.3 64 344 74.7 344 88L344 144C344 157.3 333.3 168 320 168C306.7 168 296 157.3 296 144zM139 139C148.4 129.6 163.6 129.6 172.9 139L212.5 178.6C221.9 188 221.9 203.2 212.5 212.5C203.1 221.8 187.9 221.9 178.6 212.5L139 172.9C129.6 163.5 129.6 148.3 139 139zM427.5 427.5C436.9 418.1 452.1 418.1 461.4 427.5L501 467.1C510.4 476.5 510.4 491.7 501 501C491.6 510.3 476.4 510.4 467.1 501L427.5 461.4C418.1 452 418.1 436.8 427.5 427.5zM64 320C64 306.7 74.7 296 88 296L144 296C157.3 296 168 306.7 168 320C168 333.3 157.3 344 144 344L88 344C74.7 344 64 333.3 64 320zM472 320C472 306.7 482.7 296 496 296L552 296C565.3 296 576 306.7 576 320C576 333.3 565.3 344 552 344L496 344C482.7 344 472 333.3 472 320zM139 501C129.6 491.6 129.6 476.4 139 467.1L178.6 427.5C188 418.1 203.2 418.1 212.5 427.5C221.8 436.9 221.9 452.1 212.5 461.4L172.9 501C163.5 510.4 148.3 510.4 139 501zM427.5 212.5C418.1 203.1 418.1 187.9 427.5 178.6L467.1 139C476.5 129.6 491.7 129.6 501 139C510.3 148.4 510.4 163.6 501 172.9L461.4 212.5C452 221.9 436.8 221.9 427.5 212.5zM384 320C384 284.7 355.3 256 320 256C284.7 256 256 284.7 256 320C256 355.3 284.7 384 320 384C355.3 384 384 355.3 384 320zM208 320C208 258.1 258.1 208 320 208C381.9 208 432 258.1 432 320C432 381.9 381.9 432 320 432C258.1 432 208 381.9 208 320z"/></svg>